<svg id="Layer_1" xmlns="http://www.w3.org/2000/svg" viewBox="0 0 309.98 110.84">
    <defs>
        <linearGradient id="linear-gradient" x1="-458.4" y1="936.01" x2="-458.05" y2="936.01" gradientTransform="matrix(-246.08 0 0 246.08 -112694.05 -230317.33)" gradientUnits="userSpaceOnUse">
            <stop offset="0" stop-color="#0071d1"/>
            <stop offset=".38" stop-color="#0070cf"/>
            <stop offset=".52" stop-color="#016cc8"/>
            <stop offset=".62" stop-color="#0467bc"/>
            <stop offset=".7" stop-color="#075fab"/>
            <stop offset=".77" stop-color="#0b5595"/>
            <stop offset=".83" stop-color="#11487a"/>
            <stop offset=".89" stop-color="#17395a"/>
            <stop offset=".93" stop-color="#1e2935"/>
            <stop offset=".96" stop-color="#231f20"/>
            <stop offset="1" stop-color="#231f20"/>
        </linearGradient>
        <linearGradient id="linear-gradient-2" x1="-457.38" y1="934.96" x2="-457.02" y2="934.96" gradientTransform="matrix(239.91 0 0 -239.91 109706.01 224384.08)" gradientUnits="userSpaceOnUse">
            <stop offset="0" stop-color="#0071cf"/>
            <stop offset=".13" stop-color="#0071cf"/>
            <stop offset=".36" stop-color="#0070cc"/>
            <stop offset=".46" stop-color="#016cc5"/>
            <stop offset=".53" stop-color="#0466b9"/>
            <stop offset=".6" stop-color="#075ea7"/>
            <stop offset=".65" stop-color="#0c538f"/>
            <stop offset=".7" stop-color="#124673"/>
            <stop offset=".75" stop-color="#193651"/>
            <stop offset=".79" stop-color="#20242a"/>
            <stop offset=".8" stop-color="#231f20"/>
            <stop offset="1" stop-color="#231f20"/>
        </linearGradient>
        <linearGradient id="linear-gradient-3" x1="-457.71" y1="935.66" x2="-457.36" y2="935.66" gradientTransform="matrix(312.51 0 0 -312.51 143047.07 292449.41)" gradientUnits="userSpaceOnUse">
            <stop offset="0" stop-color="#ffc221"/>
            <stop offset=".23" stop-color="#ffc221"/>
            <stop offset=".3" stop-color="#f8bd20"/>
            <stop offset=".4" stop-color="#e7b020"/>
            <stop offset=".51" stop-color="#cb9c20"/>
            <stop offset=".63" stop-color="#a47f20"/>
            <stop offset=".76" stop-color="#725a20"/>
            <stop offset=".9" stop-color="#362d20"/>
            <stop offset=".94" stop-color="#231f20"/>
            <stop offset="1" stop-color="#231f20"/>
        </linearGradient>
        <clipPath id="clippath">
            <path class="cls-1" d="M86.75.2s-.02.08-.04.13c-.02.06-.05.14-.08.24-.06.19-.15.45-.26.78-.09.27-.23.53-.43.79-1.98 3.71-5.86 5.78-12.16 5.77-3.76.12-7.61-.88-9.76-1.25-3.27-.57-17.61-4.63-26.42-2.48-8.81 2.14-13.21 12.3-13.21 12.3s.67 1.92 2.82 7.34c4.52 11.4 17.84 15.35 17.84 15.35l-1.13-2.15a14.656 14.656 0 0 1-1.35-9.93c.9-4.29 9.14-4.52 20.21-5.19 11.06-.68 15.69-2.15 20.77-6.66C88.63 10.72 86.83 0 86.83 0c-.02.07-.04.14-.07.2"/>
        </clipPath>
        <clipPath id="clippath-1">
            <path class="cls-1" d="M11.78 63.03 0 106.69 34.77 59.5l-22.99 3.53z"/>
        </clipPath>
        <clipPath id="clippath-2">
            <path class="cls-1" d="M7.79 77.79s8.35-15.92 24.61-17.05c16.26-1.13 27.32-1.81 31.95-3.84 8.24-4.14 13.74-14.79 17.77-29 .02-.06.03-.11.04-.15 0-.03.02-.06.02-.09 0 0-21 18.74-37.14 11.52-16.15-7.22-20.66-22.69-20.66-22.69L7.79 77.79Z"/>
        </clipPath>
        <style>
            .cls-1{fill:none}.cls-5{fill:#0071bc}.cls-8{fill:#fff}
        </style>
    </defs>
    <g style="clip-path:url(#clippath)">
        <path transform="rotate(-32.74 56.501 19.592)" style="fill:url(#linear-gradient)" d="M18.9-14.26h75.22v67.69H18.9z"/>
    </g>
    <g style="clip-path:url(#clippath-1)">
        <path transform="rotate(-61.51 17.387 83.096)" style="fill:url(#linear-gradient-2)" d="M-11.65 56.56h58.06v53.07h-58.06z"/>
    </g>
    <g style="clip-path:url(#clippath-2)">
        <path style="fill:url(#linear-gradient-3)" d="M7.79 16.48h74.4v61.3H7.79z"/>
    </g>
    <path class="cls-8" d="M132.29 66.58h-10.71V55.33c-9.11 0-15.6-1.67-19.46-5.01-3.86-3.34-5.79-8.38-5.79-15.11 0-8.46 1.93-14.34 5.79-17.66 3.86-3.32 8.51-4.98 13.94-4.98h16.36v8.59h-16.36c-2.6 0-4.81.83-6.63 2.49-1.82 1.66-2.73 5.08-2.73 10.26h13.73c3.32 0 6.15.97 8.48 2.9s3.5 4.26 3.5 6.99v1.64c0 .46-.05.86-.13 1.23h18.38v8.73l-18.38.07v11.12ZM108.66 42.1l-1.01 4.64 12.79-.07c1.17 0 1.75-.41 1.75-1.23 0-1.09-.04-1.77-.13-2.05-.18-.73-.72-1.09-1.62-1.09l-11.78-.2ZM175.65 34.39l-13.53-22.23h9.7l12.12 19.71c2.24 3.5 4.26 6.27 6.06 8.32 3.81 4.18 5.72 9.16 5.72 14.94v11.32h-10.57V55.13c0-2.82-.91-5.3-2.73-7.43-1.82-2.14-4.1-3.21-6.83-3.21s-5.02 1.07-6.83 3.21c-1.82 2.14-2.73 4.62-2.73 7.43v.14h-10.57v-.14c0-5.77 1.91-10.75 5.72-14.94 2.69-2.96 7.52-4.89 14.48-5.8ZM216.99 23.21l8.55 11.05c3.64.95 6.84 2.96 9.63 6 3.81 4.18 5.72 9.16 5.72 14.94v11.32h-10.57V55.2c0-2.82-.91-5.3-2.73-7.43-1.82-2.14-4.1-3.21-6.83-3.21s-5.02 1.07-6.83 3.21c-1.82 2.14-2.73 4.62-2.73 7.43v11.32h-10.57V55.2c0-5.77 1.91-10.75 5.72-14.94 2.69-2.95 5.86-4.89 9.49-5.8l-8.55-11.25h-6.67V12.3h40.26v10.91h-23.9ZM72.71 88.41l-4.25-10.87h4.82l4.25 10.81c1.81.45 3.4 1.42 4.78 2.91 1.9 2.05 2.84 4.49 2.84 7.33v5.55H79.9v-5.55c0-1.38-.45-2.6-1.35-3.65-.9-1.05-2.04-1.57-3.4-1.57s-2.49.52-3.4 1.57a5.428 5.428 0 0 0-1.35 3.65v5.55h-5.25v-5.55c0-2.83.95-5.27 2.84-7.33 1.34-1.45 2.91-2.4 4.72-2.84ZM97.3 93.96c-1.36 0-2.52.93-3.48 2.79-.96 1.86-1.44 3.49-1.44 4.87v2.51h-5.25v-2.51c.11-4.46 1.11-7.72 3.01-9.77 1.38-1.49 2.97-2.5 4.75-3.01v-6.02l-7.53-.03v-5.25h20.07v5.25h-7.26v11.14l-2.88.03ZM113.56 91.62c0-5.24.99-8.9 2.96-10.97 1.97-2.07 4.34-3.11 7.11-3.11h10.24v5.32h-10.24c-1.32 0-2.44.52-3.36 1.56-.93 1.04-1.39 3.44-1.39 7.21 0 2.74.46 4.63 1.39 5.65.93 1.03 2.05 1.54 3.36 1.54h10.24v5.32h-10.24c-2.77 0-5.14-1.03-7.11-3.09-1.97-2.06-2.96-5.2-2.96-9.42ZM141.43 79.27h7.93v6.22h7.59v5.25h-7.59v13.38h-5.25V90.74h-7.23v-5.25l7.23-.03v-3.61h-7.93v-5.39h5.25v2.81ZM233.5 96.2c.11 1.87-.68 3.66-2.38 5.35s-3.73 2.54-6.09 2.54c-1.34 0-2.62-.2-3.85-.6h.03c-1.23.4-2.51.6-3.85.6-2.36 0-4.39-.85-6.09-2.54-1.7-1.69-2.54-4.2-2.54-7.53 0-6.38.23-10.09.69-11.14a9.068 9.068 0 0 1 1.86-2.76c.78-.79 1.69-1.42 2.74-1.87 1.05-.46 2.16-.69 3.35-.69 1.09 0 2.38.15 3.85.43 1.45-.29 2.72-.43 3.81-.43 1.18 0 2.3.23 3.35.69 1.05.46 1.96 1.08 2.74 1.87.78.79 1.4 1.71 1.86 2.76.46 1.05.64 3.71.55 8h5.25v5.32h-5.29Zm-17.27-13.21c-.31 0-.6.09-.87.27-.27.18-.5.42-.69.72-.19.3-.34.65-.45 1.04-.11.39-.17 3.41-.17 9.05 0 1.85.21 3.1.64 3.75.42.65.94.96 1.54.94.67.02 1.22-.29 1.64-.94.42-.65.64-1.9.64-3.75 0-5.64-.06-8.66-.17-9.05s-.26-.74-.45-1.04c-.19-.3-.42-.54-.69-.72-.27-.18-.59-.27-.97-.27Zm9.84 0c-.31 0-.6.09-.87.27-.27.18-.5.42-.69.72s-.34.65-.45 1.04c-.11.39-.17 3.41-.17 9.05 0 1.85.21 3.1.64 3.75.42.65.94.96 1.54.94.67.02 1.22-.29 1.64-.94.42-.65.64-1.9.64-3.75 0-5.64-.06-8.66-.17-9.05-.11-.39-.26-.74-.45-1.04-.19-.3-.42-.54-.69-.72-.27-.18-.59-.27-.97-.27ZM240.92 91.62c0-5.24.99-8.9 2.96-10.97 1.97-2.07 4.34-3.11 7.11-3.11h10.24v5.32h-10.24c-1.32 0-2.44.52-3.36 1.56-.93 1.04-1.39 3.44-1.39 7.21 0 2.74.46 4.63 1.39 5.65.93 1.03 2.05 1.54 3.36 1.54h10.24v5.32h-10.24c-2.77 0-5.14-1.03-7.11-3.09-1.97-2.06-2.96-5.2-2.96-9.42ZM263.24 91.62c0-5.24.99-8.9 2.96-10.97 1.97-2.07 4.34-3.11 7.11-3.11h10.24v5.32h-10.24c-1.32 0-2.44.52-3.36 1.56-.93 1.04-1.39 3.44-1.39 7.21 0 2.74.46 4.63 1.39 5.65.93 1.03 2.05 1.54 3.36 1.54h10.24v5.32h-10.24c-2.77 0-5.14-1.03-7.11-3.09-1.97-2.06-2.96-5.2-2.96-9.42ZM304.72 86.23c-.38.89-1.12 1.79-2.21 2.69-1.09.9-2.4 1.56-3.91 1.96l7.06.03v13.22h-5.32l.03-7.73h-9.2v7.73h-5.32V90.88h7.36c-1.67-.31-3.32-1.05-4.93-2.22-1.62-1.17-2.43-2.7-2.43-4.6.02-1.94.85-3.47 2.49-4.6s3.26-1.77 4.87-1.92h5.32c1.65.22 2.99.71 4.03 1.47s1.76 1.39 2.16 1.91h5.25v5.32h-5.25Zm-11.94-5.39c-.36.13-.87.45-1.54.94-.67.49-1.02 1.24-1.04 2.24 0 .98.31 1.7.94 2.16.62.46 1.15.79 1.57.99h5.79c1.45-1.07 2.17-2.1 2.17-3.08.02-1-.22-1.74-.72-2.21s-.98-.81-1.42-1.04h-5.75Z"/>
    <path class="cls-5" transform="rotate(-45 178.3 85.536)" d="M177.85 81.18h.91v8.71h-.91z"/>
    <path class="cls-5" transform="rotate(-55.37 187.65 84.577)" d="M182.04 84.12h11.23v.91h-11.23z"/>
    <path class="cls-5" transform="rotate(-87.97 189.916 93.007)" d="M189.46 86.14h.91v13.73h-.91z"/>
    <path class="cls-5" transform="rotate(-14.87 183.707 98.712)" d="M183.26 90.61h.91v16.21h-.91z"/>
    <path class="cls-5" transform="rotate(-50.65 176.03 95.64)" d="M170.19 95.19h11.69v.91h-11.69z"/>
    <path class="cls-5" d="M167.95 98.72c-2.43-5.61-.45-10.93 1.56-14.94l.82.41c-2.03 4.07-3.81 8.94-1.54 14.17l-.84.36ZM183.13 97.4l-5.71-4.15 2.18-6.71h7.06l2.18 6.71-5.71 4.15z"/>
    <path class="cls-5" d="m175.92 82.94-.15.06-6.29 2.84-.69-.77L167 83.1c1.71-3.1 4.29-5.66 7.4-7.33l.76.16.77 7.02ZM174.79 104.68l-.94.43-2.41 1.09a18.563 18.563 0 0 1-5.57-7.79l1.25-2.18 2.35.49 4.16.87.39.08.77 7.02ZM190.91 105.54l-.73 3.44c-2.18.9-4.56 1.4-7.06 1.4-.67 0-1.33-.04-1.98-.1l-1.43-3.22-.15-.33 4.79-4.31.46-.41 6.1 3.53ZM201.54 91.98c0 2.95-.69 5.74-1.93 8.21l-3.33-.35-1.29-6.07-.18-.84 6.11-3.53.5.45c.07.7.12 1.4.12 2.13M197.3 80.22l-.78 1.77-6.6-.69-.43-.05-1.46-6.9.15-.08c3.62 1.02 6.78 3.13 9.12 5.95"/>
    <path class="cls-5" d="M183.12 110.84c-.65 0-1.33-.03-2.02-.1-3.66-.4-7.1-1.85-9.95-4.19a19.015 19.015 0 0 1-5.71-7.98c-.78-2.12-1.18-4.34-1.18-6.59 0-3.18.81-6.33 2.34-9.1 1.76-3.2 4.38-5.8 7.58-7.52 4.26-2.31 9.49-2.87 14.13-1.53 3.66 1.03 6.89 3.14 9.35 6.09a18.79 18.79 0 0 1 4.23 9.87c.08.79.12 1.49.12 2.18 0 2.96-.67 5.79-1.98 8.41a18.784 18.784 0 0 1-9.66 9.01c-2.31.96-4.74 1.44-7.24 1.44m-.01-36.82c-2.98 0-5.92.74-8.51 2.15a17.876 17.876 0 0 0-7.22 7.15 17.914 17.914 0 0 0-2.22 8.66c0 2.14.38 4.25 1.12 6.27a18.16 18.16 0 0 0 5.44 7.6c2.71 2.23 5.99 3.6 9.47 3.99 3.15.31 6.04-.12 8.82-1.27 3.99-1.65 7.25-4.7 9.19-8.58 1.25-2.49 1.89-5.19 1.89-8.01a17.92 17.92 0 0 0-4.14-11.47c-2.34-2.81-5.42-4.82-8.9-5.8-1.59-.46-3.25-.69-4.93-.69"/>
    <path class="cls-5" d="M180.17 107.12c-3.64 0-6.13-1.86-8.12-3.78l.63-.66c2.31 2.22 5.05 4.16 9.5 3.33l.17.9c-.77.14-1.5.21-2.18.21"/>
</svg>
